<?xml version="1.0" standalone="no"?>
<!DOCTYPE svg PUBLIC "-//W3C//DTD SVG 1.1//EN" "http://www.w3.org/Graphics/SVG/1.1/DTD/svg11.dtd" >
<!--
2013-9-30: Created.
-->
<svg>
<metadata>
Created by iconfont
</metadata>
<defs>

<font id="iconfont" horiz-adv-x="1024" >
  <font-face
    font-family="iconfont"
    font-weight="500"
    font-stretch="normal"
    units-per-em="1024"
    ascent="896"
    descent="-128"
  />
    <missing-glyph />
    
    <glyph glyph-name="fanhui" unicode="&#58997;" d="M328.555136 380.412177l364.265028 364.265028c20.07399 20.049007 20.07399 52.553369 0 72.577393-20.024024 20.049007-52.528386 20.049007-72.577393 0L220.992263 418.028872c-20.024024-20.024024-20.024024-52.528386 0-72.577393 1.578929-1.578929 3.383306-2.83188 5.112534-4.160179 0.300796-0.325779 0.526243-0.701724 0.827039-1.027503l389.877663-389.877663c19.57293-19.57293 51.300418-19.57293 70.873148 0s19.57293 51.300418 0 70.873148L328.555136 380.412177z"  horiz-adv-x="1024" />

    
    <glyph glyph-name="tubiaolunkuo-" unicode="&#58901;" d="M512-128c-281.6 0-512 230.4-512 512s230.4 512 512 512 512-230.4 512-512-230.4-512-512-512zM512 864C249.6 864 32 646.4 32 384s211.2-480 480-480 480 211.2 480 480S774.4 864 512 864z m243.2-742.4c-6.4 0-12.8 0-12.8 6.4L512 358.4l-236.8-217.6c-12.8-12.8-19.2-12.8-32 0-6.4 6.4-6.4 19.2 0 25.6L486.4 384 256 614.4c-6.4 6.4-6.4 19.2 0 25.6 6.4 6.4 19.2 6.4 25.6 0L512 409.6l236.8 217.6c12.8 12.8 19.2 12.8 32 0 6.4-6.4 6.4-19.2 0-25.6L537.6 384l230.4-230.4c6.4-6.4 6.4-19.2 0-25.6-6.4-6.4-6.4-6.4-12.8-6.4z"  horiz-adv-x="1024" />

    
    <glyph glyph-name="gengduosangedian_" unicode="&#58909;" d="M213.333333 277.333333a106.666667 106.666667 0 1 0 106.666667 106.666667 106.666667 106.666667 0 0 0-106.666667-106.666667z m0 170.666667a64 64 0 1 1 64-64 64 64 0 0 1-64 64zM512 277.333333a106.666667 106.666667 0 1 0 106.666667 106.666667 106.666667 106.666667 0 0 0-106.666667-106.666667z m0 170.666667a64 64 0 1 1 64-64 64 64 0 0 1-64 64zM810.666667 277.333333a106.666667 106.666667 0 1 0 106.666666 106.666667 106.666667 106.666667 0 0 0-106.666666-106.666667z m0 170.666667a64 64 0 1 1 64-64 64 64 0 0 1-64 64z"  horiz-adv-x="1024" />

    
    <glyph glyph-name="shoucang" unicode="&#59310;" d="M279.169699-34.984536c-16.133446 0-27.341718 5.196349-34.58468 10.520611-15.205307 11.17655-23.391756 29.723975-24.38334 55.098899-2.750647 71.184249-4.956895 189.407837-5.40408 218.492246-16.356526 23.839965-82.312704 120.254851-120.494305 179.862437-11.992125 18.627243-15.31787 40.196491-9.178033 59.175751 6.108115 18.691711 20.786419 33.305547 41.412179 41.23617 65.699328 25.102724 175.161369 64.627926 201.926966 74.28589 17.652032 23.296589 91.378174 120.414487 135.092791 175.784562 11.768021 14.934131 29.275767 23.50432 48.015573 23.50432 0.096191 0 0.159636 0 0.272199 0 19.682271-0.127913 38.661531-9.449209 50.749848-25.022906 43.123147-55.434543 114.65839-151.0973 131.990127-174.345794 26.989701-9.737782 137.538493-49.90255 202.710818-74.957179 27.293623-10.505261 37.878702-27.805276 41.939181-40.564881 5.468548-17.220197 2.494821-36.487006-8.18645-52.939723-38.581714-59.095933-106.535385-161.666006-122.57264-185.922457l-3.294023-132.390239c-0.255827-11.992125-10.761088-20.977777-22.080901-21.185508-11.879562 0.287549-21.249977 10.233062-20.977777 22.288632l3.421936 138.706085c0.096191 4.124947 1.358951 8.154727 3.64604 11.592013 0 0 81.944314 123.595946 125.883035 190.846606 3.405563 5.276167 4.6366 11.112082 3.166109 15.60542-2.142803 6.588045-10.008958 10.872628-16.244986 13.271258-73.90215 28.396747-206.628034 76.364225-207.970612 76.859505-3.965312 1.438769-7.402597 3.997034-9.945513 7.387247-0.847298 1.182942-86.485747 116.065436-135.363967 178.887226-3.948939 5.084808-10.505261 8.266267-17.044188 8.314363-3.629667 0.048095-9.769504-1.182942-14.470573-7.131421-49.326429-62.501496-137.523143-179.01514-138.402163-180.149986-2.558265-3.390213-6.011924-5.867638-9.91379-7.30743-1.295506-0.463558-132.694161-47.711652-207.075219-76.156494-5.835915-2.174526-13.286608-6.412037-15.71696-14.102183-2.094708-6.332219-0.479931-14.34266 4.365424-21.904892 43.25106-67.490114 122.637108-182.915983 123.404588-184.083575 2.462075-3.565199 3.805676-7.770987 3.869121-12.088316 0.048095-1.423419 2.382257-143.422504 5.516644-224.168526 0.463558-10.889001 2.910283-18.739806 6.763031-21.633716 4.02978-2.910283 12.503778-2.910283 23.184025 0.079818 76.747965 21.505803 210.417337 62.310138 211.728192 62.677505 4.109598 1.26276 8.538467 1.310855 12.647041 0 1.375324-0.463558 135.76408-42.771129 211.344452-64.068178 11.464099-3.229554 18.195408-15.189957 15.013949-26.78197-3.229554-11.576663-15.158235-18.339694-26.574239-15.141862-66.722634 18.755156-178.6314 53.723575-206.29239 62.389956-27.565822-8.410554-138.802276-42.11519-206.340485-61.046355C295.07904-33.897785 286.588669-34.984536 279.169699-34.984536L279.169699-34.984536z"  horiz-adv-x="1024" />

    
    <glyph glyph-name="deguozhiyou" unicode="&#58893;" d="M629.639281 20.552338c-2.638083 0-5.287423 0.236384-7.925507 0.710175-9.250688 1.632173-17.648962 5.985318-24.273846 12.633738-3.773953 3.761674-6.825452 8.114818-9.084912 12.96529l-85.101213 182.575222-39.132252-39.132252 11.710716-69.840648c2.425236-14.503319-2.330068-29.360701-12.69309-39.747259l-38.681998-38.658462c-8.469905-8.493441-20.252253-13.343913-32.305777-13.343913-1.976004 0-3.963265 0.118704-5.938246 0.378623-9.865695 1.348718-19.163455 5.938246-26.178219 12.96529-2.874467 2.863211-5.335519 6.104021-7.322779 9.558703l-63.062268 110.037139-110.037139 63.051011c-3.51301 2.034333-6.731308 4.51892-9.56996 7.357572-7.027044 7.003508-11.616572 16.277732-12.941753 26.143427-1.868557 13.982456 2.969635 28.29544 12.941753 38.256302l38.670741 38.681998c8.469905 8.469905 20.228717 13.320377 32.247448 13.320377 2.495844 0 4.991688-0.189312 7.488555-0.615007l69.829392-11.710716 39.132252 39.132252-182.563966 85.101213c-4.802376 2.223644-9.1678 5.276167-12.95301 9.084912-6.64842 6.64842-11.012821 15.023158-12.633738 24.273846-2.602268 14.620999 2.117221 29.620621 12.633738 40.125883l51.576679 51.576679c8.469905 8.469905 20.216437 13.343913 32.235169 13.343913l327.592037-7.618515L701.337229 719.174736c18.216897 18.241456 43.070958 28.271904 69.982888 28.271904 27.656897 0 54.55757-11.048637 73.815169-30.30726 19.116383-19.116383 29.881564-44.762483 30.29498-72.206532 0.414439-27.539216-9.617032-52.972469-28.260647-71.591525L719.140711 445.323671l7.594979-326.58715c0.295735-12.397355-4.554736-24.51023-13.308097-33.264615l-51.576679-51.576679C653.381008 25.426345 641.634476 20.552338 629.639281 20.552338zM631.247918 75.205075l44.632523 44.620243-8.079002 346.034061 143.431713 143.420457c8.801457 8.824993 13.650905 21.718651 13.295817 35.417651-0.355087 13.81668-5.950526 27.113521-15.34243 36.505425s-22.688745 14.976086-36.494169 15.331173c-0.023536 0-0.047072 0-0.082888 0-14.514575 0-26.888394-4.850471-35.322483-13.295817L593.867566 539.817812l-346.046341 8.067746-44.632523-44.620243 241.509473-112.61587L335.714018 281.651984l-92.979648 15.614629-31.845289-31.845289 116.0112-66.50467 66.50467-116.02348 31.856545 31.845289-15.614629 92.956112 108.996436 108.996436L631.247918 75.205075zM365.184213 47.180811c-2.39249 2.39249-4.467755 5.098111-6.16849 8.042163l-64.034409 111.757317-111.762433 64.037479c-2.945075 1.701758-5.64558 3.773953-8.03807 6.166443-5.903453 5.903453-9.763364 13.713326-10.868535 21.989827-1.573845 11.753695 2.489704 23.774473 10.868535 32.153304l38.674834 38.674834c8.715499 8.715499 21.202904 12.701277 33.401738 10.660804l73.515341-12.323677 49.122791 49.122791L177.924295 466.934874c-4.063549 1.908466-7.724938 4.477988-10.890025 7.643074-5.584182 5.584182-9.256828 12.639878-10.620895 20.404726-2.182712 12.290931 1.787716 24.90625 10.619872 33.738405l51.574632 51.574632c7.354502 7.354502 17.547655 11.43033 27.965935 11.181667l329.673441-7.662517 130.2239 130.2239c35.638685 35.638685 96.78737 34.70543 133.530203-2.037403 36.741809-36.741809 37.675064-97.891518 2.036379-133.529179L711.814862 448.24828l7.662517-329.671395c0.248663-10.41828-3.827165-20.61348-11.181667-27.969005l-51.574632-51.574632c-8.832156-8.832156-21.443381-12.802584-33.734312-10.620895-7.765871 1.364067-14.824637 5.036713-20.408819 10.620895-3.167133 3.167133-5.739724 6.833639-7.646144 10.898211l-89.469708 191.964056-49.122791-49.122791 12.323677-73.514317c2.041496-12.199856-1.944282-24.686239-10.660804-33.402761l-38.674834-38.674834c-8.379854-8.378831-20.399609-12.443403-32.153304-10.870582C378.897539 37.417447 371.087667 41.277358 365.184213 47.180811zM199.025892 263.82599l122.555244-70.244854 70.243831-122.55422 41.22389 41.22389-15.614629 92.965322 99.006921 99.006921L629.05088 62.710506l54.168714 54.168714-8.081049 346.040201 141.225465 141.225465c10.212596 10.212596 15.83771 25.061792 15.434527 40.739866-0.402159 15.637142-6.770194 30.742165-17.469883 41.442878-10.700713 10.700713-25.805736 17.068747-41.443901 17.47193-15.677051 0.404206-30.526247-5.221932-40.738843-15.434527L590.919421 547.139567l-346.040201 8.080026-54.168714-54.168714 241.511519-112.608707-99.006921-99.006921-92.965322 15.614629L199.025892 263.82599z"  horiz-adv-x="1024" />

    
    <glyph glyph-name="shangse-" unicode="&#58882;" d="M525.7 389.2c-1.5 0-2.9 0.3-4.3 0.8-1.3 0.5-2.6 0.8-3.9 1-6 0.7-10.6 5.8-10.6 11.9 0 6.6 5.4 12 12 12 0.5 0 1 0 1.5-0.1 3.2-0.4 6.4-1.2 9.4-2.3 1.7-0.6 3.2-1.6 4.5-2.8 4.7-4.7 4.7-12.3 0-17-2.5-2.3-5.5-3.5-8.6-3.5zM512 502.8m-235 0a235 235 0 1 1 470 0 235 235 0 1 1-470 0ZM740.2 597.3c-25.2 61-72.7 108.4-133.6 133.7-60.9 25.3-128.1 25.3-189 0-61-25.2-108.4-72.7-133.7-133.6-25.3-60.9-25.3-128.1 0-189 25.2-61 72.7-108.4 133.6-133.7 16-6.6 32.4-11.5 49-14.6v-197.8c0-24.3 19.7-44 44-44h4.2c24.3 0 44 19.7 44 44v198c16.2 3.2 32.2 7.9 47.8 14.4 61 25.2 108.4 72.7 133.7 133.6 25.2 60.9 25.3 128 0 189zM534.6 62.1c0-11-9-20-20-20h-4.2c-11 0-20 9-20 20V256.6c7.2-0.6 14.4-1 21.6-1 7.6 0 15.1 0.4 22.6 1.1v-194.6zM718 417.4c-22.8-55-65.7-97.9-120.7-120.7-4-1.7-8.1-3.2-12.2-4.6-0.8 0.1-1.6 0.1-2.5 0-47.5-4.8-95.5 7.2-135.1 33.9-36.1 24.3-60.6 61.2-69 103.9-8.4 42.7 0.4 86.1 24.7 122.2 39.7 59 119.9 74.7 178.8 35 22.5-15.1 37.7-38.1 42.9-64.7s-0.3-53.6-15.4-76.1c-11.8-17.6-29.8-29.5-50.6-33.6-20.8-4.1-41.9 0.2-59.5 12-28.1 18.9-35.6 57.2-16.7 85.4 14.5 21.6 43.9 27.3 65.5 12.8 7.9-5.3 13.3-13.4 15.1-22.7 1.8-9.3-0.1-18.8-5.4-26.8-3.7-5.5-2.2-13 3.3-16.7 5.5-3.7 13-2.2 16.7 3.3 8.9 13.2 12.1 29.1 9 44.8-3.1 15.6-12 29.1-25.3 38-32.6 21.9-76.9 13.2-98.8-19.3-26.3-39.1-15.9-92.4 23.2-118.7 22.9-15.4 50.4-21 77.5-15.7 27.1 5.3 50.5 20.8 65.9 43.7 18.7 27.8 25.4 61.2 19 94.1-6.4 32.9-25.3 61.3-53.1 80-69.9 47-165.1 28.4-212.1-41.5-27.9-41.4-37.9-91.2-28.3-140.2 9.6-49 37.7-91.3 79.1-119.2 14.8-9.9 30.6-18.1 47.1-24.3h-0.2c-0.6 0.1-1.1 0.2-1.7 0.2-17.9 2.7-35.5 7.6-52.7 14.7-55 22.8-97.9 65.7-120.7 120.7-22.8 55-22.8 115.7 0 170.7s65.7 97.9 120.7 120.7c27.5 11.4 56.4 17.1 85.3 17.1s57.9-5.7 85.4-17.1c55-22.8 97.9-65.7 120.7-120.7 22.9-54.9 22.9-115.6 0.1-170.6z"  horiz-adv-x="1024" />

    
    <glyph glyph-name="zhiwu" unicode="&#59241;" d="M661.7 463.6c46.2 19.5 87.6 47.5 123.2 83 35.6 35.6 63.5 77 83 123.2 20.2 47.8 30.5 98.6 30.5 150.9 0 17-1.1 34-3.3 50.7 0 0.3-0.1 0.6-0.1 0.9C893.7 885 883.2 895.2 870 895.7c-5 0.2-10 0.3-15.1 0.3C802.6 896 751.8 885.7 704 865.5c-46.2-19.5-87.6-47.5-123.2-83s-63.5-77-83-123.2c-7.7-18.1-13.9-36.7-18.7-55.6-19.9 36.4-45.6 69.6-76.4 98.3-67.5 62.8-155.2 99.4-247.2 103.3-2.2 0.3-4.5 0.4-6.8 0.1-14.3-1.6-24.6-14.5-23-28.8 10.6-94 55.4-180.8 126-244.3C313.6 476.9 391 443 472.9 435l11.4-114.9H231.5c-8 0-15.5-3.7-20.5-9.9-4.9-6.3-6.7-14.5-4.9-22.2l95.2-395.9c2.8-11.7 13.3-20 25.4-20h357.5c12 0 22.5 8.2 25.3 19.9l96.4 395.9c1.9 7.8 0.1 16-4.8 22.3-4.9 6.3-12.5 10-20.5 10H536.7l-11.2 113.3c47.1 1.6 92.9 11.7 136.2 30.1z m-479 287.1c139.7-18.5 254.8-124.9 284.2-262.6-140.4 18.4-254.8 123.5-284.2 262.6z m481-826.5H347.3L264.6 268h482.8l-83.7-343.8zM845.5 843.7c0.5-7.7 0.8-15.4 0.8-23 0-181.7-145.2-330.1-325.6-335.3-0.2 1.1-0.4 2.2-0.6 3.4l-0.1 0.9c0 0.9 0.1 1.8 0 2.7-0.2 5.3-0.4 10.7-0.4 16-0.1 181.8 145.3 330.3 325.9 335.3z"  horiz-adv-x="1024" />

    
    <glyph glyph-name="meinv" unicode="&#58913;" d="M310 542.4c-9.6 2.4-18 2.8-18-5.2 0-20.8 10.8-55.2 24.8-72.8 9.2-12 23.2-17.6 47.6-14.8l7.2-16.8c24.4-53.2 56-101.6 90-127.2 13.6-10.4 32-15.2 50.8-15.2 18.8 0 37.2 5.2 50.8 15.2 33.6 25.6 65.6 74 90 127.2 1.2 2.8 2.8 6 4 8.8-25.6 12.8-49.6 37.6-49.2 72.4 2.4 140-11.6 194-112.8 197.6-85.2 3.2-158.4-84.4-152.8-182.8-7.2 5.2-23.2 11.2-32.4 13.6z m314-274v-30.4c60.4-21.6 122-58.8 181.2-82.4 32.4-12.8 55.2-36.8 70.4-67.6 20.4-41.6 32.4-86 40-134.4 1.6-10-6.4-18.4-16.4-18.4-84.4-0.4-144.4-16.8-202.4-32.8-56.8-15.6-111.6-30.4-184.8-30.4-149.6 0-224 62.8-388 63.2-10 0-17.2 8.8-15.6 18.4 8.8 55.6 29.2 135.6 68.4 174.8 11.6 11.6 25.6 20.8 42 27.6 59.6 23.6 120.8 60.8 181.2 82.4v84.4c-13.6 16.8-26 36.4-37.6 57.2-7.2-7.6-17.6-12.4-28.8-12.4-22 0-40 18-40 40 0 11.2 4.4 20.8 11.6 28.4-12 9.2-22.4 22.4-30.4 38-9.2 18.4-15.2 40.8-15.2 64 0 20.4 16 37.2 36 38.8-25.2 161.2 36.8 246.8 142 232 4.8 81.6 210.8 100.8 314-27.2 82.4-102.4 70-250.8-3.2-328.8 60 12.8 82-77.2 23.6-82 56.8-54.4-11.6-114.4-60.8-71.2 5.6-42.8-50.4-56.8-87.2-31.2z m-192 19.6v-50c0-13.6-8.4-25.6-21.2-30-58-20.8-121.2-58.8-180.4-82-20.4-8-35.2-21.6-46-39.2 98.4-38.8 207.2-101.2 328-127.2 120.4 26 229.2 88.4 327.6 127.2-4.4 7.2-9.6 13.6-14.8 19.2-8.8 8.8-18.8 15.6-31.2 20.4-59.2 23.2-122.4 61.6-180.4 82-12.8 4.4-21.2 16.4-21.2 30V288c-3.2-2.8-6.4-5.6-10-8-19.2-14.4-44.8-22-70-22-25.2 0-50.8 7.2-70 22-3.6 2.4-7.2 5.2-10.4 8z m-62.4-180c-11.2 0-20-8.8-20-20s8.8-20 20-20 20 8.8 20 20-8.8 20-20 20z m284.8 0c11.2 0 20-8.8 20-20s-8.8-20-20-20-20 8.8-20 20 8.8 20 20 20z m-229.6-33.6c-15.6 0-28-12.4-28-28s12.4-28 28-28 28 12.4 28 28-12.4 28-28 28z m174.4 0c15.6 0 28-12.4 28-28s-12.4-28-28-28-28 12.4-28 28 12.4 28 28 28z m-87.2-15.6c20 0 36-16 36-36s-16-36-36-36-36 16-36 36 16 36 36 36z m-154.4 86.4c-2.8 3.6-2.4 8.4 1.2 11.2 3.6 2.8 8.4 2.4 11.2-1.2 35.6-44.4 84.8-69.2 141.6-69.2 57.2 0 106 24.4 141.6 69.2 2.8 3.6 7.6 4 11.2 1.2 3.6-2.8 4-7.6 1.2-11.2-38.8-48-92.4-75.2-154.4-75.2-61.2 0.4-114.8 27.2-153.6 75.2z m340.8 330.8c-95.2-23.6-37.2 145.6-87.2 218-29.6 42.8-79.2 48-145.6 40.4 67.2 27.6 121.6 16 156-26 48.4-59.2 19.2-164 38.8-210.8 6-13.6 14.4-21.2 38-21.6z"  horiz-adv-x="1024" />

    
    <glyph glyph-name="muying" unicode="&#59321;" d="M984.946759 368.763586c0-72.509793-42.866759-134.408828-101.499587-144.066207-59.268414-161.597793-206.000552-271.289379-372.965517-271.289379-166.982621 0-313.714759 109.691586-372.983172 271.289379-58.615172 9.639724-101.481931 71.538759-101.481931 144.066207 0 69.031724 38.894345 128.54731 93.572414 142.26538 52.788966 173.726897 205.329655 294.894345 380.892689 294.894344 175.58069 0 328.068414-121.167448 380.89269-294.894344 54.660414-13.718069 93.572414-73.25131 93.572414-142.26538z m-52.965518 0c0 51.147034-29.448828 90.747586-62.622896 92.212966a26.482759 26.482759 0 0 0-24.452414 19.773793C803.010207 640.759172 666.888828 752.940138 510.481655 752.940138c-156.389517 0-292.546207-112.180966-334.441931-272.225104a26.482759 26.482759 0 0 0-24.452414-19.756137c-33.156414-1.447724-62.605241-41.065931-62.605241-92.212966 0-52.082759 30.349241-91.983448 64.017655-92.389517a51.553103 51.553103 0 0 0 2.842483 0.176552 26.482759 26.482759 0 0 0 26.129655-18.36138c48.057379-149.715862 179.341241-251.815724 328.509793-251.815724 149.150897 0 280.434759 102.099862 328.474483 251.815724A26.482759 26.482759 0 0 0 865.103448 276.550621c1.906759-0.088276 1.906759-0.088276 2.842483-0.176552 33.668414 0.406069 64.03531 40.324414 64.03531 92.389517zM285.042759 366.521379a47.492414 47.492414 0 0 0 67.319172 0 47.845517 47.845517 0 0 0 0-67.513379 47.457103 47.457103 0 0 0-67.319172 0 47.845517 47.845517 0 0 0 0 67.513379M668.601379 366.521379a47.492414 47.492414 0 0 0 67.301518 0 47.845517 47.845517 0 0 0 0-67.513379 47.457103 47.457103 0 0 0-67.301518 0 47.845517 47.845517 0 0 0 0 67.513379M299.219862 180.806621a26.482759 26.482759 0 0 0 42.902069 31.037793c39.229793-54.254345 101.499586-86.934069 169.277793-86.934069 67.795862 0 130.048 32.662069 169.295448 86.934069a26.482759 26.482759 0 0 0 42.902069-31.037793c-49.081379-67.848828-127.187862-108.861793-212.197517-108.861793-84.992 0-163.133793 41.012966-212.179862 108.861793zM480.132414 803.592828a26.482759 26.482759 0 0 0 26.059034-46.115311 301.267862 301.267862 0 0 1-50.264276-37.870345c-45.515034-42.725517-60.363034-84.427034-33.721379-125.634206 32.361931-50.087724 124.045241-52.082759 177.222621-7.256276 14.177103 11.952552 12.76469 30.049103-2.348138 43.767172-16.489931 14.936276-38.099862 13.982897-58.103173-9.18069a26.482759 26.482759 0 0 0-40.077241 34.639449c39.724138 45.974069 95.532138 48.428138 133.755586 13.771034 37.270069-33.809655 41.613241-89.211586 0.918069-123.497931-75.511172-63.646897-204.270345-60.839724-255.858758 18.996966-43.820138 67.831172-19.950345 134.903172 41.966344 193.024a353.580138 353.580138 0 0 0 60.451311 45.373793z"  horiz-adv-x="1024" />

    
    <glyph glyph-name="hot" unicode="&#58955;" d="M870.695764 495.215493c-48.237646 80.205485-40.045565 135.724419-39.59118 137.885024a40.776224 40.776224 0 0 1-15.01696 39.59118 41.335856 41.335856 0 0 1-41.86614 5.119671c-2.8437-1.251835-70.535894-32.195537-96.587624-123.209105-3.526795-12.400959-6.598193-25.7117-9.101863-39.704523-3.867836 7.281288-7.281288 13.879481-10.011644 19.681235-64.846471 140.392742-35.835675 305.80498-34.584852 312.745226a40.813667 40.813667 0 0 1-51.308032 47.099155c-8.418768-2.389315-206.142922-61.889428-252.789716-312.517528-15.472357-83.16354-7.622329-160.866367 1.592876-210.923576-10.921426 10.808083-21.274112 24.004468-31.854495 40.500961-24.915261 39.249127-43.914413 110.468116-44.1411 111.263543a40.899687 40.899687 0 0 1-34.584852 30.148276 41.449199 41.449199 0 0 1-40.614305-20.592029C167.050124 526.727935 93.784885 395.668803 93.784885 272.459698c0-232.084345 174.404806-400.459698 414.68022-400.459698 244.370948 0 421.733809 168.375353 421.733809 400.459698 0.113343 95.792197-13.197397 145.849407-59.505174 222.755795zM508.462069-46.087283c-192.948561 0-332.996213 134.017187-332.996214 318.661336 0 44.483153 12.852308 92.378746 26.166085 129.921653a319.341395 319.341395 0 0 1 18.65811-34.699208c59.727812-94.084966 151.651161-117.521706 155.518998-118.431487a41.402647 41.402647 0 0 1 40.277311 12.852308 40.889567 40.889567 0 0 1 7.394631 41.638442c-0.455397 1.251835-47.78225 133.107406-23.550083 263.142402 22.753645 122.071625 90.217129 187.26015 137.089597 218.773604-5.91611-108.87524 10.011644-204.894123 47.21351-285.440651 24.346521-52.559867 77.81617-128.784173 83.846635-137.316283a40.903735 40.903735 0 0 1 74.179068 26.393782c-0.113343 0.796438-4.553967 78.158224 13.993836 143.004695 1.251835 4.20989 2.502658 8.305424 3.982191 12.286604 8.759809-30.603673 22.298248-61.320688 40.277311-91.468964 38.111647-63.482305 48.009948-100.569815 48.009948-180.547602 0-184.870835-143.004695-318.777715-340.049802-318.777715z"  horiz-adv-x="1024" />

    
    <glyph glyph-name="icon_wife" unicode="&#58895;" d="M144.864 375.168A478.944 478.944 0 0 0 510.368 544c146.368 0 277.44-65.536 365.504-168.832l-90.912-90.912A351.36 351.36 0 0 1 510.368 416a351.36 351.36 0 0 1-274.624-131.744l-90.88 90.88z m136.48-136.512A287.552 287.552 0 0 0 510.368 352a287.552 287.552 0 0 0 228.992-113.344l-92-92A159.904 159.904 0 0 1 510.4 224a159.904 159.904 0 0 1-137.024-77.344l-92 92z m139.616-139.616a96.032 96.032 0 0 0 178.784 0l-89.376-89.376-89.408 89.376z"  horiz-adv-x="1024" />

    
    <glyph glyph-name="lanya_huaban" unicode="&#58944;" d="M746.45 198.11L534.92 384.03 746.4 569.9c14.5 12.74 14.5 35.33 0 48.07L524.12 813.31c-6.3 5.54-13.7 8.03-20.94 8.03-16.51 0-32.19-12.93-32.19-32.06V440.2l-189.1 166.21c-20.68 18.17-53.12 3.49-53.12-24.04a32 32 0 0 1 10.88-24.04l198.33-174.32-198.34-174.3a32.019 32.019 0 0 1-10.88-24.04c0-27.53 32.45-42.21 53.12-24.04L471.06 327.9v-349.18c0-19.13 15.68-32.06 32.19-32.06 7.24 0 14.63 2.48 20.94 8.03l222.27 195.35c14.49 12.74 14.49 35.33-0.01 48.07zM535 718.55l141.79-124.62L535 469.3V718.55z m0.06-669.1V298.7l141.79-124.62-141.79-124.63z"  horiz-adv-x="1024" />

    
    <glyph glyph-name="dianliang" unicode="&#58941;" d="M813.913 183.675H115.107c-20.584 0-37.27 16.687-37.27 37.27v326.11c0 20.584 16.686 37.27 37.27 37.27h698.806c20.582 0 37.27-16.686 37.27-37.27v-326.11c0-20.583-16.688-37.27-37.27-37.27z m-661.536 74.54h624.266v251.57H152.377v-251.57zM884.355 467.741c-6.09 0-11.03-6.691-11.03-14.944v-137.593c0-8.255 4.94-14.945 11.03-14.945 34.08 0 61.806 37.567 61.806 83.74 0 46.176-27.727 83.742-61.806 83.742zM174.65 487.183H512v-206.366H174.65V487.183z"  horiz-adv-x="1024" />

    
    <glyph glyph-name="ffanhui-" unicode="&#59057;" d="M398.259 583.168V810.652L0.007 412.497 398.259 14.18V247.498c284.4 0 483.565-91.004 625.735-290.15-56.838 284.472-227.502 568.82-625.735 625.82"  horiz-adv-x="1024" />

    
    <glyph glyph-name="catalog" unicode="&#58891;" d="M915 340H334.782c-60 0-60 90 0 90H915c60 0 60-90 0-90z m-0.377-371H334.405c-60 0-60 90 0 90h580.218c60 0 60-90 0-90z m0 741H334.405c-60 0-60 90 0 90h580.218c60 0 60-90 0-90zM128 690c-35.346 0-64 28.654-64 64 0 35.346 28.654 64 64 64 35.346 0 64-28.654 64-64 0-35.346-28.654-64-64-64z m0-741c-35.346 0-64 28.654-64 64 0 35.346 28.654 64 64 64 35.346 0 64-28.654 64-64 0-35.346-28.654-64-64-64z m0 371c-35.346 0-64 28.654-64 64 0 35.346 28.654 64 64 64 35.346 0 64-28.654 64-64 0-35.346-28.654-64-64-64z"  horiz-adv-x="1024" />

    
    <glyph glyph-name="daohangshouye" unicode="&#58885;" d="M104.748753 276.75208c-9.18387-0.001024-18.350333 3.600233-25.206749 10.753596-13.340112 13.918647-12.870115 36.015639 1.048532 49.355751L455.824695 696.482292c15.076743 14.456225 35.025473 22.421586 56.167113 22.421586 21.133448 0 41.082179-7.960242 56.173257-22.413395l375.241328-359.629056c13.918647-13.339088 14.38762-35.43608 1.047508-49.355751-13.339088-13.917623-35.43608-14.388644-49.355751-1.048532L519.866038 646.078009c-4.187984 4.011864-11.542043 4.020055-15.727979 0.006144L128.897754 286.457145C122.133494 279.973449 113.433956 276.753104 104.748753 276.75208zM779.622424-118.911046 639.994624-118.911046c-44.911778 0-81.450659 36.537857-81.450659 81.448611L558.543965 113.804684l-93.08793 0 0-151.268143c0-44.910754-36.538881-81.448611-81.450659-81.448611L244.375528-118.91207c-44.911778 0-81.450659 36.537857-81.450659 81.448611L162.924869 265.071803c0 19.279062 15.628656 34.907718 34.907718 34.907718 19.279062 0 34.907718-15.628656 34.907718-34.907718l0-302.534238c0-6.415091 5.220133-11.633175 11.636247-11.633175l139.628824 0c6.416115 0 11.636247 5.219109 11.636247 11.633175L395.641623 148.712402c0 19.279062 15.628656 34.907718 34.907718 34.907718l162.903366 0c19.279062 0 34.907718-15.628656 34.907718-34.907718l0-186.174837c0-6.415091 5.220133-11.633175 11.635223-11.633175l139.6278 0c6.417138 0 11.637271 5.219109 11.637271 11.633175L791.260719 265.071803c0 19.279062 15.628656 34.907718 34.907718 34.907718s34.907718-15.628656 34.907718-34.907718l0-302.534238C861.075131-82.374212 824.535226-118.911046 779.622424-118.911046zM861.369007 486.197364c-19.279062 0-34.907718 15.628656-34.907718 34.907718l0 127.994624L698.468712 649.099706c-19.279062 0-34.907718 15.628656-34.907718 34.907718s15.628656 34.907718 34.907718 34.907718l127.994624 0c38.495663 0 69.813388-31.318749 69.813388-69.815436l0-127.994624C896.276724 501.826019 880.648069 486.197364 861.369007 486.197364z"  horiz-adv-x="1024" />

    
    <glyph glyph-name="icon-plus-search" unicode="&#59156;" d="M955.598-26.823l-251.515 251.516c58.26 65.085 93.984 150.754 93.984 244.978 0 203.166-164.697 367.863-367.863 367.863-203.165 0-367.863-164.696-367.863-367.863 0-203.164 164.698-367.863 367.863-367.863 94.224 0 179.893 35.728 244.978 93.985l251.516-251.518c3.975-3.975 9.213-5.962 14.451-5.962s10.478 1.986 14.451 5.962c7.946 7.948 7.946 20.954-0.002 28.902zM675.074 253.703c-9.033-10.229-18.675-19.871-28.904-28.902-57.673-50.929-133.16-82.119-215.968-82.119-180.302 0-326.989 146.687-326.989 326.989s146.688 326.989 326.99 326.989c180.301 0 326.989-146.687 326.989-326.989-0.001-82.808-31.191-158.295-82.118-215.968z"  horiz-adv-x="1024" />

    
    <glyph glyph-name="wo" unicode="&#59073;" d="M512 280.3c143.2 0 259.4 116.1 259.4 259.4S655.2 799 512 799 252.6 682.9 252.6 539.6 368.8 280.3 512 280.3z m0 477.2c120.1 0 217.9-97.7 217.9-217.9S632.1 321.8 512 321.8s-217.9 97.7-217.9 217.9S391.9 757.5 512 757.5zM512 238.8c-217 0-396.5-108.3-414.8-246.2-1.7-12.4 8.2-23.5 20.7-23.5 10.3 0 19 7.5 20.4 17.7 15.4 115.8 181 210.5 373.7 210.5s358.3-94.7 373.7-210.5c1.4-10.2 10.1-17.7 20.4-17.7 12.6 0 22.4 11.1 20.7 23.5C908.5 130.5 729 238.8 512 238.8z"  horiz-adv-x="1024" />

    
    <glyph glyph-name="fenlei" unicode="&#58898;" d="M468.8 411.4H276.6c-114.4 0-208.1 93.6-208.1 208.1 0 114.4 93.6 208.1 208.1 208.1 114.4 0 208.1-93.6 208.1-208.1v-192.2c-0.1-8.8-7.2-15.9-15.9-15.9zM747.4 411.4H555.2c-8.7 0-15.8 7.1-15.8 15.8V619.4c0 114.4 93.6 208.1 208.1 208.1 114.4 0 208.1-93.6 208.1-208.1-0.1-114.4-93.7-208-208.2-208zM276.6-59.5c-114.4 0-208.1 93.6-208.1 208.1 0 114.4 93.6 208.1 208.1 208.1h192.2c8.7 0 15.8-7.1 15.8-15.8v-192.2c0-114.6-93.6-208.2-208-208.2zM747.4-59.5c-114.4 0-208.1 93.6-208.1 208.1V340.8c0 8.7 7.1 15.8 15.8 15.8h192.2c114.4 0 208.1-93.6 208.1-208.1 0.1-114.4-93.5-208-208-208z"  horiz-adv-x="1024" />

    
    <glyph glyph-name="gouwuche" unicode="&#58940;" d="M892.7 246.2h-0.3c-4.1 0-414.6-4.3-492-5.2-11.8-0.1-29.1 3.1-42.8 32.6-9.6 20.7-11.8 42.8-11.9 44 0 0.6-0.1 1.1-0.2 1.7-0.2 1.8-25.1 181.8-40.3 314.1-5.3 45.7-24.3 81-56.6 105-42.1 31.2-95.8 33.5-125.5 31.8-6.1-0.3-12.6-0.6-18.4-2.8-4.4-1.7-8.5-4.5-11.7-8-5.4-5.8-8.5-13.6-8.5-21.6 0-10 4.9-19.7 13-25.6 7-5.1 15.9-6.8 24.4-6.1 18.6 1.6 60.2 2.3 89-19.1 17.7-13.2 27.8-33.1 31-60.9 14.8-128.6 38.6-301.8 40.4-314.7 0.6-6.3 3.8-34.1 16.7-62.7 20.7-46.1 56.5-71.4 100.9-71.4h1.3c77.4 0.8 487.8 5.1 491.9 5.2 17.6 0.2 31.7 14.6 31.6 32.2-0.3 17.4-14.5 31.5-32 31.5zM918.4 697c-24.5 28.3-57.9 29.3-65.8 29.1H360.3c-17.6 0-31.9-14.3-31.9-31.9s14.3-31.9 31.9-31.9h492.8c1 0 0.8-0.1 1.4 0 1.9-0.1 10.4-0.8 15.9-7.5 8.6-10.5 10-33.6 3.9-63.5-5.4-26.4-9.8-48.6-13.8-68.2-11.3-56.7-17.6-87.9-23.4-99.7-5.7-11.4-16.7-21.2-32.9-29-25.7-12.5-62.4-19.2-109.1-20.1-191.2-3.4-301 0-302 0-17.6 0.6-32.3-13.3-32.9-30.9s13.3-32.3 30.9-32.9c0.7 0 50.2-1.5 140.2-1.5 45.2 0 100.5 0.4 165 1.5 56 1 101.8 9.9 135.9 26.5 29.1 14.1 50 33.7 62.1 58 9.6 19.4 15.3 47.5 28.9 115.6 3.9 19.5 8.3 41.7 13.7 67.9 10.6 52.2 4.4 92-18.5 118.5zM360.498448 78.687873a55 55 0 1 1 107.055856 25.279313 55 55 0 1 1-107.055856-25.279313ZM740.706352 79.520006a55 55 0 1 1 107.055856 25.279313 55 55 0 1 1-107.055856-25.279313Z"  horiz-adv-x="1024" />

    


  </font>
</defs>
</svg>
